<svg xmlns="http://www.w3.org/2000/svg" xmlns:xlink="http://www.w3.org/1999/xlink" version="1.1" width="720pt" height="720pt" viewBox="0 0 720 720">
<defs>
<clipPath id="clip_0">
<path transform="matrix(1,0,0,-1,0,720)" d="M0 720H720V0H0Z"/>
</clipPath>
<clipPath id="clip_1">
<path transform="matrix(1,0,0,-1,0,720)" d="M0 720H720V0H0Z"/>
</clipPath>
<clipPath id="clip_2">
<path transform="matrix(1,0,0,-1,0,720)" d="M0 720H720V0H0Z"/>
</clipPath>
<clipPath id="clip_3">
<path transform="matrix(1,0,0,-1,0,720)" d="M0 720H720V0H0Z"/>
</clipPath>
<clipPath id="clip_4">
<path transform="matrix(1,0,0,-1,0,720)" d="M0 720H720V0H0Z"/>
</clipPath>
<clipPath id="clip_5">
<path transform="matrix(1,0,0,-1,0,720)" d="M0 720H720V0H0Z"/>
</clipPath>
</defs>
<g id="layer_1" data-name="">
<g clip-path="url(#clip_0)">
<path transform="matrix(1,0,0,-1,402.6016,539.8799)" stroke-width="20" stroke-linecap="butt" stroke-miterlimit="10" stroke-linejoin="miter" fill="none" stroke="#555555" d="M0 0H317.158"/>
<path transform="matrix(1,0,0,-1,665.0977,324.0239)" stroke-width="20" stroke-linecap="butt" stroke-miterlimit="10" stroke-linejoin="miter" fill="none" stroke="#555555" d="M0 0H54.662"/>
<path transform="matrix(1,0,0,-1,.2402,180.12012)" stroke-width="20" stroke-linecap="butt" stroke-miterlimit="10" stroke-linejoin="miter" fill="none" stroke="#555555" d="M0 0H349.369"/>
<path transform="matrix(1,0,0,-1,.2402,216.09619)" stroke-width="20" stroke-linecap="butt" stroke-miterlimit="10" stroke-linejoin="miter" fill="none" stroke="#555555" d="M0 0H337.305"/>
<path transform="matrix(1,0,0,-1,356.1831,431.9521)" stroke-width="20" stroke-linecap="butt" stroke-miterlimit="10" stroke-linejoin="miter" fill="none" stroke="#555555" d="M0 0H363.577"/>
</g>
<path transform="matrix(1,0,0,-1,328.3335,431.9521)" stroke-width="20" stroke-linecap="butt" stroke-miterlimit="10" stroke-linejoin="miter" fill="none" stroke="#555555" d="M0 0H4.867"/>
<g clip-path="url(#clip_1)">
<path transform="matrix(1,0,0,-1,363.5527,467.9277)" stroke-width="20" stroke-linecap="butt" stroke-miterlimit="10" stroke-linejoin="miter" fill="none" stroke="#555555" d="M0 0H356.207"/>
<path transform="matrix(1,0,0,-1,710.6191,216.09619)" stroke-width="20" stroke-linecap="butt" stroke-miterlimit="10" stroke-linejoin="miter" fill="none" stroke="#555555" d="M0 0H9.141"/>
<path transform="matrix(1,0,0,-1,.2402,144.14398)" stroke-width="20" stroke-linecap="butt" stroke-miterlimit="10" stroke-linejoin="miter" fill="none" stroke="#555555" d="M0 0H361.434"/>
<path transform="matrix(1,0,0,-1,463.502,395.9756)" stroke-width="20" stroke-linecap="butt" stroke-miterlimit="10" stroke-linejoin="miter" fill="none" stroke="#555555" d="M0 0H256.258"/>
<path transform="matrix(1,0,0,-1,408.707,611.83206)" stroke-width="20" stroke-linecap="butt" stroke-miterlimit="10" stroke-linejoin="miter" fill="none" stroke="#555555" d="M0 0H311.053"/>
<path transform="matrix(1,0,0,-1,401.2334,647.8076)" stroke-width="20" stroke-linecap="butt" stroke-miterlimit="10" stroke-linejoin="miter" fill="none" stroke="#555555" d="M0 0H318.526"/>
<path transform="matrix(1,0,0,-1,385.7129,683.7842)" stroke-width="20" stroke-linecap="butt" stroke-miterlimit="10" stroke-linejoin="miter" fill="none" stroke="#555555" d="M0 0H334.047"/>
<path transform="matrix(1,0,0,-1,359.4258,719.7598)" stroke-width="20" stroke-linecap="butt" stroke-miterlimit="10" stroke-linejoin="miter" fill="none" stroke="#555555" d="M0 0H360.334"/>
<path transform="matrix(1,0,0,-1,.2402,.24017334)" stroke-width="20" stroke-linecap="butt" stroke-miterlimit="10" stroke-linejoin="miter" fill="none" stroke="#555555" d="M0 0H534.139"/>
<path transform="matrix(1,0,0,-1,.2402,36.21582)" stroke-width="20" stroke-linecap="butt" stroke-miterlimit="10" stroke-linejoin="miter" fill="none" stroke="#555555" d="M0 0H418.364"/>
<path transform="matrix(1,0,0,-1,.2402,72.191898)" stroke-width="20" stroke-linecap="butt" stroke-miterlimit="10" stroke-linejoin="miter" fill="none" stroke="#555555" d="M0 0H385.682"/>
<path transform="matrix(1,0,0,-1,.2402,108.16803)" stroke-width="20" stroke-linecap="butt" stroke-miterlimit="10" stroke-linejoin="miter" fill="none" stroke="#555555" d="M0 0H373.498"/>
<path transform="matrix(1,0,0,-1,570.8213,360)" stroke-width="20" stroke-linecap="butt" stroke-miterlimit="10" stroke-linejoin="miter" fill="none" stroke="#555555" d="M0 0H148.938"/>
<path transform="matrix(1,0,0,-1,689.0479,288.0479)" stroke-width="20" stroke-linecap="butt" stroke-miterlimit="10" stroke-linejoin="miter" fill="none" stroke="#555555" d="M0 0H30.712"/>
<path transform="matrix(1,0,0,-1,409.1455,575.8564)" stroke-width="20" stroke-linecap="butt" stroke-miterlimit="10" stroke-linejoin="miter" fill="none" stroke="#555555" d="M0 0H310.614"/>
<path transform="matrix(1,0,0,-1,.2402,252.0723)" stroke-width="20" stroke-linecap="butt" stroke-miterlimit="10" stroke-linejoin="miter" fill="none" stroke="#555555" d="M0 0H325.24"/>
</g>
<path transform="matrix(1,0,0,-1,185.0635,288.0479)" stroke-width="20" stroke-linecap="butt" stroke-miterlimit="10" stroke-linejoin="miter" fill="none" stroke="#555555" d="M0 0H128.352"/>
<g clip-path="url(#clip_2)">
<path transform="matrix(1,0,0,-1,.2402,288.0479)" stroke-width="20" stroke-linecap="butt" stroke-miterlimit="10" stroke-linejoin="miter" fill="none" stroke="#555555" d="M0 0H106.235"/>
</g>
<path transform="matrix(1,0,0,-1,220.8809,324.0239)" stroke-width="20" stroke-linecap="butt" stroke-miterlimit="10" stroke-linejoin="miter" fill="none" stroke="#555555" d="M0 0H80.47"/>
<g clip-path="url(#clip_3)">
<path transform="matrix(1,0,0,-1,.2402,324.0239)" stroke-width="20" stroke-linecap="butt" stroke-miterlimit="10" stroke-linejoin="miter" fill="none" stroke="#555555" d="M0 0H91.653"/>
</g>
<path transform="matrix(1,0,0,-1,256.6982,360)" stroke-width="20" stroke-linecap="butt" stroke-miterlimit="10" stroke-linejoin="miter" fill="none" stroke="#555555" d="M0 0H32.588"/>
<g clip-path="url(#clip_4)">
<path transform="matrix(1,0,0,-1,.2402,360)" stroke-width="20" stroke-linecap="butt" stroke-miterlimit="10" stroke-linejoin="miter" fill="none" stroke="#555555" d="M0 0H104.7"/>
</g>
<path transform="matrix(1,0,0,-1,292.5161,395.9756)" stroke-width="20" stroke-linecap="butt" stroke-miterlimit="10" stroke-linejoin="miter" fill="none" stroke="#555555" d="M0 0H.474"/>
<g clip-path="url(#clip_5)">
<path transform="matrix(1,0,0,-1,.2402,395.9756)" stroke-width="20" stroke-linecap="butt" stroke-miterlimit="10" stroke-linejoin="miter" fill="none" stroke="#555555" d="M0 0H124.958"/>
<path transform="matrix(1,0,0,-1,.2402,431.9521)" stroke-width="20" stroke-linecap="butt" stroke-miterlimit="10" stroke-linejoin="miter" fill="none" stroke="#555555" d="M0 0H114.518"/>
<path transform="matrix(1,0,0,-1,.2402,467.9277)" stroke-width="20" stroke-linecap="butt" stroke-miterlimit="10" stroke-linejoin="miter" fill="none" stroke="#555555" d="M0 0H78.826"/>
<path transform="matrix(1,0,0,-1,.2402,503.9043)" stroke-width="20" stroke-linecap="butt" stroke-miterlimit="10" stroke-linejoin="miter" fill="none" stroke="#555555" d="M0 0H54.197"/>
<path transform="matrix(1,0,0,-1,.2402,539.8799)" stroke-width="20" stroke-linecap="butt" stroke-miterlimit="10" stroke-linejoin="miter" fill="none" stroke="#555555" d="M0 0H39.827"/>
<path transform="matrix(1,0,0,-1,.2402,575.8564)" stroke-width="20" stroke-linecap="butt" stroke-miterlimit="10" stroke-linejoin="miter" fill="none" stroke="#555555" d="M0 0H33.292"/>
<path transform="matrix(1,0,0,-1,.2402,611.83206)" stroke-width="20" stroke-linecap="butt" stroke-miterlimit="10" stroke-linejoin="miter" fill="none" stroke="#555555" d="M0 0H33.725"/>
<path transform="matrix(1,0,0,-1,.2402,647.8076)" stroke-width="20" stroke-linecap="butt" stroke-miterlimit="10" stroke-linejoin="miter" fill="none" stroke="#555555" d="M0 0H41.183"/>
<path transform="matrix(1,0,0,-1,.2402,683.7842)" stroke-width="20" stroke-linecap="butt" stroke-miterlimit="10" stroke-linejoin="miter" fill="none" stroke="#555555" d="M0 0H56.689"/>
<path transform="matrix(1,0,0,-1,.2402,719.7598)" stroke-width="20" stroke-linecap="butt" stroke-miterlimit="10" stroke-linejoin="miter" fill="none" stroke="#555555" d="M0 0H82.998"/>
<path transform="matrix(1,0,0,-1,388.207,503.9043)" stroke-width="20" stroke-linecap="butt" stroke-miterlimit="10" stroke-linejoin="miter" fill="none" stroke="#555555" d="M0 0H331.553"/>
<path transform="matrix(1,0,0,-1,699.834,252.0723)" stroke-width="20" stroke-linecap="butt" stroke-miterlimit="10" stroke-linejoin="miter" fill="none" stroke="#555555" d="M0 0H19.926"/>
<path transform="matrix(1,0,0,-1,359.4258,719.7598)" stroke-width="20" stroke-linecap="butt" stroke-miterlimit="10" stroke-linejoin="miter" fill="none" stroke="#555555" d="M0 0H-276.188C-345.025 73.894-343.257 189.893-271.076 261.757-266.425 266.387-261.538 270.777-256.532 274.812-233.528 293.44-225.238 330.186-246.131 351.172L-251.83 356.895C-272.842 378-272.767 412.027-251.661 433.04-230.556 454.052-196.529 453.977-175.517 432.872L-63.538 320.396 103.901 487.728C100.631 494.595 98.778 502.226 98.778 510.292 98.778 539.18 122.216 562.617 151.104 562.617 179.99 562.617 203.428 539.18 203.428 510.292 203.428 481.405 179.99 457.968 151.104 457.968 143.036 457.968 135.405 459.821 128.538 463.091L-38.901 295.651-4.57 261.168C67.16 189.121 68.621 73.81 0 0Z"/>
<path transform="matrix(1,0,0,-1,359.4258,719.7598)" d="M0 0H-276.188C-345.025 73.894-343.257 189.893-271.076 261.757-266.425 266.387-261.538 270.777-256.532 274.812-233.528 293.44-225.238 330.186-246.131 351.172L-251.83 356.895C-272.842 378-272.767 412.027-251.661 433.04-230.556 454.052-196.529 453.977-175.517 432.872L-63.538 320.396 103.901 487.728C100.631 494.595 98.778 502.226 98.778 510.292 98.778 539.18 122.216 562.617 151.104 562.617 179.99 562.617 203.428 539.18 203.428 510.292 203.428 481.405 179.99 457.968 151.104 457.968 143.036 457.968 135.405 459.821 128.538 463.091L-38.901 295.651-4.57 261.168C67.16 189.121 68.621 73.81 0 0" fill="#555555"/>
<path transform="matrix(1,0,0,-1,359.4258,719.7598)" stroke-width="1" stroke-linecap="butt" stroke-miterlimit="10" stroke-linejoin="miter" fill="none" stroke="#555555" d="M0 0H-276.188C-345.025 73.894-343.257 189.893-271.076 261.757-266.425 266.387-261.538 270.777-256.532 274.812-233.528 293.44-225.238 330.186-246.131 351.172L-251.83 356.895C-272.842 378-272.767 412.027-251.661 433.04-230.556 454.052-196.529 453.977-175.517 432.872L-63.538 320.396 103.901 487.728C100.631 494.595 98.778 502.226 98.778 510.292 98.778 539.18 122.216 562.617 151.104 562.617 179.99 562.617 203.428 539.18 203.428 510.292 203.428 481.405 179.99 457.968 151.104 457.968 143.036 457.968 135.405 459.821 128.538 463.091L-38.901 295.651-4.57 261.168C67.16 189.121 68.621 73.81 0 0Z"/>
</g>
</g>
</svg>
